<svg width="33" height="33" viewBox="0 0 33 33" fill="none" xmlns="http://www.w3.org/2000/svg">
<g id="tabler:message-chatbot">
<g id="Group">
<path id="Vector" d="M13.0625 12.375H13.0763M19.9375 12.375H19.9513M5.5 28.875V11C5.5 9.90598 5.9346 8.85677 6.70818 8.08318C7.48177 7.3096 8.53098 6.875 9.625 6.875H23.375C24.469 6.875 25.5182 7.3096 26.2918 8.08318C27.0654 8.85677 27.5 9.90598 27.5 11V19.25C27.5 20.344 27.0654 21.3932 26.2918 22.1668C25.5182 22.9404 24.469 23.375 23.375 23.375H11L5.5 28.875Z" stroke="black" stroke-width="2" stroke-linecap="round" stroke-linejoin="round"/>
<path id="Vector_2" d="M13.0625 17.875C13.5106 18.3323 14.0454 18.6956 14.6357 18.9437C15.2259 19.1917 15.8597 19.3195 16.5 19.3195C17.1403 19.3195 17.7741 19.1917 18.3643 18.9437C18.9546 18.6956 19.4894 18.3323 19.9375 17.875" stroke="black" stroke-width="2" stroke-linecap="round" stroke-linejoin="round"/>
</g>
</g>
</svg>
