<svg width="20" height="20" viewBox="0 0 20 20" fill="none" xmlns="http://www.w3.org/2000/svg">
<g id="jam:alert-f">
<path id="Vector" d="M9.99935 18.2442C5.39685 18.2442 1.66602 14.5133 1.66602 9.91085C1.66602 5.30918 5.39685 1.57751 9.99935 1.57751C14.6018 1.57751 18.3327 5.30918 18.3327 9.91085C18.3327 14.5133 14.6018 18.2442 9.99935 18.2442ZM9.99935 5.74418C9.77833 5.74418 9.56637 5.83198 9.41009 5.98826C9.25381 6.14454 9.16602 6.3565 9.16602 6.57751V10.7442C9.16602 10.9652 9.25381 11.1772 9.41009 11.3334C9.56637 11.4897 9.77833 11.5775 9.99935 11.5775C10.2204 11.5775 10.4323 11.4897 10.5886 11.3334C10.7449 11.1772 10.8327 10.9652 10.8327 10.7442V6.57751C10.8327 6.3565 10.7449 6.14454 10.5886 5.98826C10.4323 5.83198 10.2204 5.74418 9.99935 5.74418ZM9.99935 14.0775C10.2204 14.0775 10.4323 13.9897 10.5886 13.8334C10.7449 13.6772 10.8327 13.4652 10.8327 13.2442C10.8327 13.0232 10.7449 12.8112 10.5886 12.6549C10.4323 12.4986 10.2204 12.4108 9.99935 12.4108C9.77833 12.4108 9.56637 12.4986 9.41009 12.6549C9.25381 12.8112 9.16602 13.0232 9.16602 13.2442C9.16602 13.4652 9.25381 13.6772 9.41009 13.8334C9.56637 13.9897 9.77833 14.0775 9.99935 14.0775Z" fill="#FF0000"/>
</g>
</svg>
