<svg width="97" height="87" viewBox="0 0 97 87" fill="none" xmlns="http://www.w3.org/2000/svg">
<rect width="97" height="87" rx="10" fill="black" fill-opacity="0.4"/>
<g clip-path="url(#clip0_261_3106)">
<path d="M38 23.9999C35.5712 23.9535 33.2034 24.7628 31.3112 26.2864C29.4189 27.8099 28.1229 29.9504 27.65 32.3333H21.3334V35.6666H27.7167C28.1936 38.0351 29.4814 40.1631 31.3585 41.6842C33.2355 43.2053 35.5842 44.0242 38 43.9999H46.3334V23.9999H38Z" fill="white"/>
<path d="M74.3166 52.3333H68.2333C67.7484 49.9565 66.4491 47.8234 64.5596 46.3021C62.6701 44.7807 60.3089 43.9666 57.8833 44H49.6666V47.3333H41.3333C40.8913 47.3333 40.4673 47.5089 40.1548 47.8215C39.8422 48.1341 39.6666 48.558 39.6666 49C39.6666 49.442 39.8422 49.866 40.1548 50.1785C40.4673 50.4911 40.8913 50.6667 41.3333 50.6667H49.6666V57.3333H41.3333C40.8913 57.3333 40.4673 57.5089 40.1548 57.8215C39.8422 58.1341 39.6666 58.558 39.6666 59C39.6666 59.442 39.8422 59.866 40.1548 60.1785C40.4673 60.4911 40.8913 60.6667 41.3333 60.6667H49.6666V64H57.9C60.33 64.0439 62.6985 63.2339 64.5928 61.7111C66.4871 60.1884 67.7872 58.0494 68.2666 55.6667H74.3333L74.3166 52.3333Z" fill="white"/>
</g>
<defs>
<clipPath id="clip0_261_3106">
<rect width="60" height="60" fill="white" transform="translate(18 14)"/>
</clipPath>
</defs>
</svg>
