<svg width="10" height="10" viewBox="0 0 10 10" fill="none" xmlns="http://www.w3.org/2000/svg">
<path d="M7.33625 4.37278L5.26469 1.07403C5.23463 1.03185 5.19493 0.99746 5.14889 0.973731C5.10284 0.950002 5.0518 0.937622 5 0.937622C4.9482 0.937622 4.89716 0.950002 4.85111 0.973731C4.80507 0.99746 4.76537 1.03185 4.73531 1.07403L2.65438 4.38841C2.36528 4.85474 2.20424 5.38905 2.1875 5.93747C2.1875 6.68339 2.48382 7.39876 3.01126 7.92621C3.53871 8.45365 4.25408 8.74997 5 8.74997C5.74592 8.74997 6.46129 8.45365 6.98874 7.92621C7.51618 7.39876 7.8125 6.68339 7.8125 5.93747C7.79454 5.38303 7.63023 4.84321 7.33625 4.37278ZM5 8.12497C4.42007 8.12423 3.8641 7.89352 3.45403 7.48345C3.04395 7.07337 2.81324 6.5174 2.8125 5.93747C2.82911 5.50047 2.96038 5.07552 3.19313 4.70528L3.48531 4.23966L6.63344 7.38778C6.42897 7.61943 6.17761 7.80498 5.896 7.93213C5.61439 8.05927 5.30898 8.1248 5 8.12497Z" fill="black"/>
<path d="M7.33625 4.37278L5.26469 1.07403C5.23463 1.03185 5.19493 0.99746 5.14889 0.973731C5.10284 0.950002 5.0518 0.937622 5 0.937622C4.9482 0.937622 4.89716 0.950002 4.85111 0.973731C4.80507 0.99746 4.76537 1.03185 4.73531 1.07403L2.65438 4.38841C2.36528 4.85474 2.20424 5.38905 2.1875 5.93747C2.1875 6.68339 2.48382 7.39876 3.01126 7.92621C3.53871 8.45365 4.25408 8.74997 5 8.74997C5.74592 8.74997 6.46129 8.45365 6.98874 7.92621C7.51618 7.39876 7.8125 6.68339 7.8125 5.93747C7.79454 5.38303 7.63023 4.84321 7.33625 4.37278ZM5 8.12497C4.42007 8.12423 3.8641 7.89352 3.45403 7.48345C3.04395 7.07337 2.81324 6.5174 2.8125 5.93747C2.82911 5.50047 2.96038 5.07552 3.19313 4.70528L3.48531 4.23966L6.63344 7.38778C6.42897 7.61943 6.17761 7.80498 5.896 7.93213C5.61439 8.05927 5.30898 8.1248 5 8.12497Z" fill="black" fill-opacity="0.2"/>
</svg>
