<svg width="10" height="10" viewBox="0 0 10 10" fill="none" xmlns="http://www.w3.org/2000/svg">
<g clip-path="url(#clip0_210_9760)">
<path d="M9.5 4.5995H9.01C8.7335 4.5995 8.51 4.779 8.51 5C8.51 5.2205 8.7335 5.3995 9.01 5.3995H9.5C9.776 5.3995 10 5.221 10 5C10 4.7795 9.7755 4.5995 9.5 4.5995ZM5 2.25C4.63855 2.24888 4.28045 2.31924 3.94629 2.45705C3.61214 2.59485 3.30854 2.79737 3.05295 3.05295C2.79737 3.30854 2.59485 3.61214 2.45705 3.94629C2.31924 4.28045 2.24888 4.63855 2.25 5C2.25 6.5255 3.4745 7.75 5 7.75C6.525 7.75 7.75 6.5255 7.75 5C7.75 3.4745 6.5245 2.25 5 2.25ZM5 7C3.8945 7 3 6.1045 3 5C3 3.8945 3.8945 3 5 3C5.53043 3 6.03914 3.21071 6.41421 3.58579C6.78929 3.96086 7 4.46957 7 5C7 5.53043 6.78929 6.03914 6.41421 6.41421C6.03914 6.78929 5.53043 7 5 7ZM1.5 5C1.5 4.7795 1.2755 4.5995 1 4.5995H0.5C0.2235 4.5995 0 4.779 0 5C0 5.2205 0.2235 5.3995 0.5 5.3995H1C1.2755 5.3995 1.5 5.2205 1.5 5ZM5 1.5C5.2205 1.5 5.3995 1.2765 5.3995 1V0.5C5.3995 0.2235 5.2205 0 5 0C4.779 0 4.5995 0.2235 4.5995 0.5V1C4.5995 1.2765 4.779 1.5 5 1.5ZM5 8.5C4.779 8.5 4.5995 8.7235 4.5995 9V9.5C4.5995 9.7765 4.779 10 5 10C5.2205 10 5.3995 9.7765 5.3995 9.5V9C5.3995 8.7235 5.2205 8.5 5 8.5ZM8.6825 1.883C8.878 1.6875 8.9095 1.4025 8.7535 1.2465C8.5975 1.0905 8.312 1.1225 8.1175 1.318L7.7675 1.6675C7.572 1.863 7.5405 2.148 7.6965 2.304C7.8525 2.46 8.138 2.428 8.333 2.2325L8.6825 1.883ZM1.667 7.7665L1.317 8.117C1.1215 8.3125 1.09 8.5965 1.246 8.7525C1.402 8.9085 1.6875 8.8775 1.882 8.682L2.232 8.3325C2.4275 8.137 2.459 7.852 2.303 7.6955C2.147 7.539 1.8615 7.572 1.667 7.7665ZM1.8825 1.3175C1.6875 1.122 1.402 1.09 1.246 1.246C1.09 1.402 1.122 1.6875 1.3165 1.883L1.6665 2.2325C1.862 2.428 2.1465 2.46 2.3025 2.304C2.4585 2.148 2.427 1.8625 2.232 1.6675L1.8825 1.3175ZM7.767 8.333L8.117 8.6825C8.3125 8.878 8.597 8.909 8.753 8.754C8.909 8.598 8.8775 8.3125 8.682 8.1175L8.3325 7.768C8.137 7.5725 7.852 7.5405 7.6955 7.6965C7.539 7.8525 7.5715 8.1375 7.767 8.333Z" fill="black"/>
<path d="M9.5 4.5995H9.01C8.7335 4.5995 8.51 4.779 8.51 5C8.51 5.2205 8.7335 5.3995 9.01 5.3995H9.5C9.776 5.3995 10 5.221 10 5C10 4.7795 9.7755 4.5995 9.5 4.5995ZM5 2.25C4.63855 2.24888 4.28045 2.31924 3.94629 2.45705C3.61214 2.59485 3.30854 2.79737 3.05295 3.05295C2.79737 3.30854 2.59485 3.61214 2.45705 3.94629C2.31924 4.28045 2.24888 4.63855 2.25 5C2.25 6.5255 3.4745 7.75 5 7.75C6.525 7.75 7.75 6.5255 7.75 5C7.75 3.4745 6.5245 2.25 5 2.25ZM5 7C3.8945 7 3 6.1045 3 5C3 3.8945 3.8945 3 5 3C5.53043 3 6.03914 3.21071 6.41421 3.58579C6.78929 3.96086 7 4.46957 7 5C7 5.53043 6.78929 6.03914 6.41421 6.41421C6.03914 6.78929 5.53043 7 5 7ZM1.5 5C1.5 4.7795 1.2755 4.5995 1 4.5995H0.5C0.2235 4.5995 0 4.779 0 5C0 5.2205 0.2235 5.3995 0.5 5.3995H1C1.2755 5.3995 1.5 5.2205 1.5 5ZM5 1.5C5.2205 1.5 5.3995 1.2765 5.3995 1V0.5C5.3995 0.2235 5.2205 0 5 0C4.779 0 4.5995 0.2235 4.5995 0.5V1C4.5995 1.2765 4.779 1.5 5 1.5ZM5 8.5C4.779 8.5 4.5995 8.7235 4.5995 9V9.5C4.5995 9.7765 4.779 10 5 10C5.2205 10 5.3995 9.7765 5.3995 9.5V9C5.3995 8.7235 5.2205 8.5 5 8.5ZM8.6825 1.883C8.878 1.6875 8.9095 1.4025 8.7535 1.2465C8.5975 1.0905 8.312 1.1225 8.1175 1.318L7.7675 1.6675C7.572 1.863 7.5405 2.148 7.6965 2.304C7.8525 2.46 8.138 2.428 8.333 2.2325L8.6825 1.883ZM1.667 7.7665L1.317 8.117C1.1215 8.3125 1.09 8.5965 1.246 8.7525C1.402 8.9085 1.6875 8.8775 1.882 8.682L2.232 8.3325C2.4275 8.137 2.459 7.852 2.303 7.6955C2.147 7.539 1.8615 7.572 1.667 7.7665ZM1.8825 1.3175C1.6875 1.122 1.402 1.09 1.246 1.246C1.09 1.402 1.122 1.6875 1.3165 1.883L1.6665 2.2325C1.862 2.428 2.1465 2.46 2.3025 2.304C2.4585 2.148 2.427 1.8625 2.232 1.6675L1.8825 1.3175ZM7.767 8.333L8.117 8.6825C8.3125 8.878 8.597 8.909 8.753 8.754C8.909 8.598 8.8775 8.3125 8.682 8.1175L8.3325 7.768C8.137 7.5725 7.852 7.5405 7.6955 7.6965C7.539 7.8525 7.5715 8.1375 7.767 8.333Z" fill="black" fill-opacity="0.2"/>
</g>
<defs>
<clipPath id="clip0_210_9760">
<rect width="10" height="10" fill="white"/>
</clipPath>
</defs>
</svg>
