<svg width="30" height="30" viewBox="0 0 30 30" fill="none" xmlns="http://www.w3.org/2000/svg">
<rect width="30" height="30" rx="10" fill="black" fill-opacity="0.4"/>
<g clip-path="url(#clip0_346_18447)">
<path d="M11.7527 8.27585C11.0015 8.25982 10.2692 8.53892 9.68398 9.06427C9.09876 9.58962 8.69793 10.3277 8.55168 11.1494H6.59807V12.2988H8.5723C8.71978 13.1155 9.11809 13.8493 9.69861 14.3739C10.2791 14.8984 11.0055 15.1808 11.7527 15.1724H14.33V8.27585H11.7527Z" fill="white"/>
<path d="M22.9847 18.046H21.1032C20.9532 17.2264 20.5514 16.4908 19.967 15.9662C19.3826 15.4416 18.6524 15.1609 17.9022 15.1724H15.361V16.3218H12.7836C12.6469 16.3218 12.5158 16.3824 12.4191 16.4902C12.3225 16.5979 12.2682 16.7441 12.2682 16.8965C12.2682 17.049 12.3225 17.1951 12.4191 17.3029C12.5158 17.4107 12.6469 17.4712 12.7836 17.4712H15.361V19.7701H12.7836C12.6469 19.7701 12.5158 19.8306 12.4191 19.9384C12.3225 20.0462 12.2682 20.1924 12.2682 20.3448C12.2682 20.4972 12.3225 20.6434 12.4191 20.7512C12.5158 20.859 12.6469 20.9195 12.7836 20.9195H15.361V22.069H17.9073C18.6589 22.0841 19.3914 21.8048 19.9773 21.2797C20.5632 20.7546 20.9653 20.017 21.1135 19.1954H22.9898L22.9847 18.046Z" fill="white"/>
</g>
<defs>
<clipPath id="clip0_346_18447">
<rect width="18.5567" height="20.6897" fill="white" transform="translate(5.56714 4.82758)"/>
</clipPath>
</defs>
</svg>
