<svg width="20" height="20" viewBox="0 0 20 20" fill="none" xmlns="http://www.w3.org/2000/svg">
<g id="carbon:humidity">
<g id="Vector">
<path d="M14.6725 8.74557L10.5294 2.14807C10.4693 2.0637 10.3899 1.99492 10.2978 1.94746C10.2057 1.9 10.1036 1.87524 10 1.87524C9.89641 1.87524 9.79431 1.9 9.70223 1.94746C9.61015 1.99492 9.53074 2.0637 9.47062 2.14807L5.30875 8.77682C4.73055 9.70948 4.40848 10.7781 4.375 11.8749C4.375 13.3668 4.96763 14.7975 6.02252 15.8524C7.07742 16.9073 8.50816 17.4999 10 17.4999C11.4918 17.4999 12.9226 16.9073 13.9775 15.8524C15.0324 14.7975 15.625 13.3668 15.625 11.8749C15.5891 10.7661 15.2605 9.68642 14.6725 8.74557ZM10 16.2499C8.84013 16.2485 7.7282 15.787 6.90805 14.9669C6.0879 14.1467 5.62649 13.0348 5.625 11.8749C5.65822 11.0009 5.92075 10.151 6.38625 9.41057L6.97062 8.47932L13.2669 14.7756C12.8579 15.2389 12.3552 15.61 11.792 15.8643C11.2288 16.1185 10.618 16.2496 10 16.2499Z" fill="black"/>
<path d="M14.6725 8.74557L10.5294 2.14807C10.4693 2.0637 10.3899 1.99492 10.2978 1.94746C10.2057 1.9 10.1036 1.87524 10 1.87524C9.89641 1.87524 9.79431 1.9 9.70223 1.94746C9.61015 1.99492 9.53074 2.0637 9.47062 2.14807L5.30875 8.77682C4.73055 9.70948 4.40848 10.7781 4.375 11.8749C4.375 13.3668 4.96763 14.7975 6.02252 15.8524C7.07742 16.9073 8.50816 17.4999 10 17.4999C11.4918 17.4999 12.9226 16.9073 13.9775 15.8524C15.0324 14.7975 15.625 13.3668 15.625 11.8749C15.5891 10.7661 15.2605 9.68642 14.6725 8.74557ZM10 16.2499C8.84013 16.2485 7.7282 15.787 6.90805 14.9669C6.0879 14.1467 5.62649 13.0348 5.625 11.8749C5.65822 11.0009 5.92075 10.151 6.38625 9.41057L6.97062 8.47932L13.2669 14.7756C12.8579 15.2389 12.3552 15.61 11.792 15.8643C11.2288 16.1185 10.618 16.2496 10 16.2499Z" fill="black" fill-opacity="0.2"/>
</g>
</g>
</svg>
