<svg width="20" height="20" viewBox="0 0 20 20" fill="none" xmlns="http://www.w3.org/2000/svg">
<g id="material-symbols:warning">
<path id="Vector" d="M0.833984 17.5L10.0007 1.66663L19.1673 17.5H0.833984ZM10.0007 15C10.2368 15 10.4348 14.92 10.5948 14.76C10.7548 14.6 10.8345 14.4022 10.834 14.1666C10.834 13.9305 10.754 13.7325 10.594 13.5725C10.434 13.4125 10.2362 13.3327 10.0007 13.3333C9.76454 13.3333 9.56648 13.4133 9.40648 13.5733C9.24648 13.7333 9.16676 13.9311 9.16732 14.1666C9.16732 14.4027 9.24732 14.6008 9.40732 14.7608C9.56732 14.9208 9.7651 15.0005 10.0007 15ZM9.16732 12.5H10.834V8.33329H9.16732V12.5Z" fill="#FFF500"/>
</g>
</svg>
