<svg width="18" height="18" viewBox="0 0 18 18" fill="none" xmlns="http://www.w3.org/2000/svg">
<g id="entypo:light-up" clip-path="url(#clip0_261_7256)">
<path id="Vector" d="M17.1 8.2791H16.218C15.7203 8.2791 15.318 8.6022 15.318 9C15.318 9.3969 15.7203 9.7191 16.218 9.7191H17.1C17.5968 9.7191 18 9.3978 18 9C18 8.6031 17.5959 8.2791 17.1 8.2791ZM9 4.05C8.34939 4.04798 7.7048 4.17464 7.10333 4.42268C6.50186 4.67073 5.95537 5.03526 5.49532 5.49532C5.03526 5.95537 4.67073 6.50186 4.42268 7.10333C4.17464 7.7048 4.04798 8.34939 4.05 9C4.05 11.7459 6.2541 13.95 9 13.95C11.745 13.95 13.95 11.7459 13.95 9C13.95 6.2541 11.7441 4.05 9 4.05ZM9 12.6C7.0101 12.6 5.4 10.9881 5.4 9C5.4 7.0101 7.0101 5.4 9 5.4C9.95478 5.4 10.8705 5.77928 11.5456 6.45442C12.2207 7.12955 12.6 8.04522 12.6 9C12.6 9.95478 12.2207 10.8705 11.5456 11.5456C10.8705 12.2207 9.95478 12.6 9 12.6ZM2.7 9C2.7 8.6031 2.2959 8.2791 1.8 8.2791H0.9C0.4023 8.2791 0 8.6022 0 9C0 9.3969 0.4023 9.7191 0.9 9.7191H1.8C2.2959 9.7191 2.7 9.3969 2.7 9ZM9 2.7C9.3969 2.7 9.7191 2.2977 9.7191 1.8V0.9C9.7191 0.4023 9.3969 0 9 0C8.6022 0 8.2791 0.4023 8.2791 0.9V1.8C8.2791 2.2977 8.6022 2.7 9 2.7ZM9 15.3C8.6022 15.3 8.2791 15.7023 8.2791 16.2V17.1C8.2791 17.5977 8.6022 18 9 18C9.3969 18 9.7191 17.5977 9.7191 17.1V16.2C9.7191 15.7023 9.3969 15.3 9 15.3ZM15.6285 3.3894C15.9804 3.0375 16.0371 2.5245 15.7563 2.2437C15.4755 1.9629 14.9616 2.0205 14.6115 2.3724L13.9815 3.0015C13.6296 3.3534 13.5729 3.8664 13.8537 4.1472C14.1345 4.428 14.6484 4.3704 14.9994 4.0185L15.6285 3.3894ZM3.0006 13.9797L2.3706 14.6106C2.0187 14.9625 1.962 15.4737 2.2428 15.7545C2.5236 16.0353 3.0375 15.9795 3.3876 15.6276L4.0176 14.9985C4.3695 14.6466 4.4262 14.1336 4.1454 13.8519C3.8646 13.5702 3.3507 13.6296 3.0006 13.9797ZM3.3885 2.3715C3.0375 2.0196 2.5236 1.962 2.2428 2.2428C1.962 2.5236 2.0196 3.0375 2.3697 3.3894L2.9997 4.0185C3.3516 4.3704 3.8637 4.428 4.1445 4.1472C4.4253 3.8664 4.3686 3.3525 4.0176 3.0015L3.3885 2.3715ZM13.9806 14.9994L14.6106 15.6285C14.9625 15.9804 15.4746 16.0362 15.7554 15.7572C16.0362 15.4764 15.9795 14.9625 15.6276 14.6115L14.9985 13.9824C14.6466 13.6305 14.1336 13.5729 13.8519 13.8537C13.5702 14.1345 13.6287 14.6475 13.9806 14.9994Z" fill="#F3ECDF"/>
</g>
<defs>
<clipPath id="clip0_261_7256">
<rect width="18" height="18" fill="white"/>
</clipPath>
</defs>
</svg>
