<svg width="20" height="20" viewBox="0 0 20 20" fill="none" xmlns="http://www.w3.org/2000/svg">
<g id="fluent:temperature-16-regular">
<path id="Vector" d="M6.25 4.375C6.25 3.5462 6.57924 2.75134 7.16529 2.16529C7.75134 1.57924 8.5462 1.25 9.375 1.25C10.2038 1.25 10.9987 1.57924 11.5847 2.16529C12.1708 2.75134 12.5 3.5462 12.5 4.375V11.1875C13.1029 11.8029 13.5107 12.5825 13.6723 13.4287C13.8339 14.2749 13.7421 15.15 13.4084 15.9442C13.0746 16.7384 12.5139 17.4164 11.7963 17.8932C11.0788 18.37 10.2365 18.6244 9.375 18.6244C8.51351 18.6244 7.67119 18.37 6.95367 17.8932C6.23615 17.4164 5.67536 16.7384 5.34162 15.9442C5.00789 15.15 4.91606 14.2749 5.07766 13.4287C5.23926 12.5825 5.64708 11.8029 6.25 11.1875V4.375ZM9.375 2.5C8.87772 2.5 8.40081 2.69754 8.04918 3.04917C7.69755 3.40081 7.5 3.87772 7.5 4.375V11.7338L7.2925 11.9212C6.82072 12.3432 6.48816 12.8984 6.33884 13.5134C6.18952 14.1285 6.23048 14.7744 6.45629 15.3656C6.6821 15.9569 7.08212 16.4656 7.60342 16.8246C8.12472 17.1835 8.74271 17.3757 9.37563 17.3757C10.0085 17.3757 10.6265 17.1835 11.1478 16.8246C11.6691 16.4656 12.0692 15.9569 12.295 15.3656C12.5208 14.7744 12.5617 14.1285 12.4124 13.5134C12.2631 12.8984 11.9305 12.3432 11.4588 11.9212L11.25 11.7325V4.375C11.25 3.87772 11.0525 3.40081 10.7008 3.04917C10.3492 2.69754 9.87228 2.5 9.375 2.5ZM10 7.5C10 7.33424 9.93415 7.17527 9.81694 7.05806C9.69973 6.94085 9.54076 6.875 9.375 6.875C9.20924 6.875 9.05027 6.94085 8.93306 7.05806C8.81585 7.17527 8.75 7.33424 8.75 7.5V12.6062C8.33299 12.7537 7.98153 13.0438 7.75773 13.4253C7.53393 13.8068 7.45221 14.2551 7.527 14.6911C7.6018 15.127 7.8283 15.5225 8.16646 15.8076C8.50463 16.0927 8.9327 16.249 9.375 16.249C9.81731 16.249 10.2454 16.0927 10.5835 15.8076C10.9217 15.5225 11.1482 15.127 11.223 14.6911C11.2978 14.2551 11.2161 13.8068 10.9923 13.4253C10.7685 13.0438 10.417 12.7537 10 12.6062V7.5Z" fill="#F3ECDF"/>
</g>
</svg>
