<svg width="24" height="25" viewBox="0 0 24 25" fill="none" xmlns="http://www.w3.org/2000/svg">
<path d="M5 7.80627C4.46957 7.80627 3.96086 8.01699 3.58579 8.39206C3.21071 8.76713 3 9.27584 3 9.80627V15.8063C3 16.3367 3.21071 16.8454 3.58579 17.2205C3.96086 17.5956 4.46957 17.8063 5 17.8063H8V15.8063H5V9.80627H8V7.80627H5ZM11 7.80627C10.4696 7.80627 9.96086 8.01699 9.58579 8.39206C9.21071 8.76713 9 9.27584 9 9.80627V15.8063C9 16.3367 9.21071 16.8454 9.58579 17.2205C9.96086 17.5956 10.4696 17.8063 11 17.8063H13C13.5304 17.8063 14.0391 17.5956 14.4142 17.2205C14.7893 16.8454 15 16.3367 15 15.8063V9.80627C15 9.27584 14.7893 8.76713 14.4142 8.39206C14.0391 8.01699 13.5304 7.80627 13 7.80627H11ZM11 9.80627H13V15.8063H11V9.80627ZM16 11.3063V12.8063H19V14.3063H17.5C17.1022 14.3063 16.7206 14.4643 16.4393 14.7456C16.158 15.0269 16 15.4084 16 15.8063V18.8063H20.5V17.3063H17.5V15.8063H19C19.3978 15.8063 19.7794 15.6482 20.0607 15.3669C20.342 15.0856 20.5 14.7041 20.5 14.3063V12.8063C20.5 12.4084 20.342 12.0269 20.0607 11.7456C19.7794 11.4643 19.3978 11.3063 19 11.3063H16Z" fill="black"/>
<path d="M5 7.80627C4.46957 7.80627 3.96086 8.01699 3.58579 8.39206C3.21071 8.76713 3 9.27584 3 9.80627V15.8063C3 16.3367 3.21071 16.8454 3.58579 17.2205C3.96086 17.5956 4.46957 17.8063 5 17.8063H8V15.8063H5V9.80627H8V7.80627H5ZM11 7.80627C10.4696 7.80627 9.96086 8.01699 9.58579 8.39206C9.21071 8.76713 9 9.27584 9 9.80627V15.8063C9 16.3367 9.21071 16.8454 9.58579 17.2205C9.96086 17.5956 10.4696 17.8063 11 17.8063H13C13.5304 17.8063 14.0391 17.5956 14.4142 17.2205C14.7893 16.8454 15 16.3367 15 15.8063V9.80627C15 9.27584 14.7893 8.76713 14.4142 8.39206C14.0391 8.01699 13.5304 7.80627 13 7.80627H11ZM11 9.80627H13V15.8063H11V9.80627ZM16 11.3063V12.8063H19V14.3063H17.5C17.1022 14.3063 16.7206 14.4643 16.4393 14.7456C16.158 15.0269 16 15.4084 16 15.8063V18.8063H20.5V17.3063H17.5V15.8063H19C19.3978 15.8063 19.7794 15.6482 20.0607 15.3669C20.342 15.0856 20.5 14.7041 20.5 14.3063V12.8063C20.5 12.4084 20.342 12.0269 20.0607 11.7456C19.7794 11.4643 19.3978 11.3063 19 11.3063H16Z" fill="black" fill-opacity="0.2"/>
</svg>
