<svg width="24" height="25" viewBox="0 0 24 25" fill="none" xmlns="http://www.w3.org/2000/svg">
<path d="M17.6605 11.509C17.4305 11.209 17.1505 10.949 16.8905 10.689C16.2205 10.089 15.4605 9.65896 14.8205 9.02896C13.3305 7.56896 13.0005 5.15896 13.9505 3.30896C13.0005 3.53896 12.1705 4.05896 11.4605 4.62896C8.87054 6.70896 7.85054 10.379 9.07054 13.529C9.11054 13.629 9.15054 13.729 9.15054 13.859C9.15054 14.079 9.00054 14.279 8.80054 14.359C8.57054 14.459 8.33054 14.399 8.14054 14.239C8.08344 14.1918 8.03592 14.134 8.00054 14.069C6.87054 12.639 6.69054 10.589 7.45054 8.94896C5.78054 10.309 4.87054 12.609 5.00054 14.779C5.06054 15.279 5.12054 15.779 5.29054 16.279C5.43054 16.879 5.70054 17.479 6.00054 18.009C7.08054 19.739 8.95054 20.979 10.9605 21.229C13.1005 21.499 15.3905 21.109 17.0305 19.629C18.8605 17.969 19.5005 15.309 18.5605 13.029L18.4305 12.769C18.2205 12.309 17.6605 11.509 17.6605 11.509ZM14.5005 17.809C14.2205 18.049 13.7605 18.309 13.4005 18.409C12.2805 18.809 11.1605 18.249 10.5005 17.589C11.6905 17.309 12.4005 16.429 12.6105 15.539C12.7805 14.739 12.4605 14.079 12.3305 13.309C12.2105 12.569 12.2305 11.939 12.5005 11.249C12.6905 11.629 12.8905 12.009 13.1305 12.309C13.9005 13.309 15.1105 13.749 15.3705 15.109C15.4105 15.249 15.4305 15.389 15.4305 15.539C15.4605 16.359 15.1005 17.259 14.5005 17.809Z" fill="black"/>
<path d="M17.6605 11.509C17.4305 11.209 17.1505 10.949 16.8905 10.689C16.2205 10.089 15.4605 9.65896 14.8205 9.02896C13.3305 7.56896 13.0005 5.15896 13.9505 3.30896C13.0005 3.53896 12.1705 4.05896 11.4605 4.62896C8.87054 6.70896 7.85054 10.379 9.07054 13.529C9.11054 13.629 9.15054 13.729 9.15054 13.859C9.15054 14.079 9.00054 14.279 8.80054 14.359C8.57054 14.459 8.33054 14.399 8.14054 14.239C8.08344 14.1918 8.03592 14.134 8.00054 14.069C6.87054 12.639 6.69054 10.589 7.45054 8.94896C5.78054 10.309 4.87054 12.609 5.00054 14.779C5.06054 15.279 5.12054 15.779 5.29054 16.279C5.43054 16.879 5.70054 17.479 6.00054 18.009C7.08054 19.739 8.95054 20.979 10.9605 21.229C13.1005 21.499 15.3905 21.109 17.0305 19.629C18.8605 17.969 19.5005 15.309 18.5605 13.029L18.4305 12.769C18.2205 12.309 17.6605 11.509 17.6605 11.509ZM14.5005 17.809C14.2205 18.049 13.7605 18.309 13.4005 18.409C12.2805 18.809 11.1605 18.249 10.5005 17.589C11.6905 17.309 12.4005 16.429 12.6105 15.539C12.7805 14.739 12.4605 14.079 12.3305 13.309C12.2105 12.569 12.2305 11.939 12.5005 11.249C12.6905 11.629 12.8905 12.009 13.1305 12.309C13.9005 13.309 15.1105 13.749 15.3705 15.109C15.4105 15.249 15.4305 15.389 15.4305 15.539C15.4605 16.359 15.1005 17.259 14.5005 17.809Z" fill="black" fill-opacity="0.2"/>
</svg>
