<svg width="24" height="25" viewBox="0 0 24 25" fill="none" xmlns="http://www.w3.org/2000/svg">
<path d="M12 20.4972C10.4087 20.4972 8.88258 19.8651 7.75736 18.7398C6.63214 17.6146 6 16.0885 6 14.4972C6 10.4972 12 3.74719 12 3.74719C12 3.74719 18 10.4972 18 14.4972C18 16.0885 17.3679 17.6146 16.2426 18.7398C15.1174 19.8651 13.5913 20.4972 12 20.4972Z" fill="black"/>
<path d="M12 20.4972C10.4087 20.4972 8.88258 19.8651 7.75736 18.7398C6.63214 17.6146 6 16.0885 6 14.4972C6 10.4972 12 3.74719 12 3.74719C12 3.74719 18 10.4972 18 14.4972C18 16.0885 17.3679 17.6146 16.2426 18.7398C15.1174 19.8651 13.5913 20.4972 12 20.4972Z" fill="black" fill-opacity="0.2"/>
</svg>
