<svg width="119" height="119" viewBox="0 0 119 119" fill="none" xmlns="http://www.w3.org/2000/svg">
<g id="fluent-emoji-flat:potted-plant">
<g id="Group">
<path id="Vector" d="M59.5298 71.5338C58.6001 71.5338 57.8563 70.79 57.8563 69.8603V62.7724L48.8198 60.0688L42.4607 54.6395L57.8563 59.2507V58.2243C57.8563 54.5056 58.8976 50.824 60.9801 47.7003C61.6011 46.7594 62.118 45.7628 62.5233 44.7253L54.2826 42.2598L44.6882 35.8598L63.4084 41.4714C63.5497 40.6086 63.6204 39.7347 63.6204 38.8497V31.0403H66.9673V38.8497C66.9673 39.281 66.9524 39.7087 66.9226 40.1363L81.3551 35.8226L70.1914 42.6837L66.3202 43.8365C65.7904 45.8322 64.9401 47.7286 63.8026 49.4518C62.092 52.0549 61.1995 55.1043 61.1995 58.2281V61.9171L76.5579 57.3132L67.1234 63.6649L61.1995 65.4387V69.864C61.1995 70.7937 60.4557 71.5375 59.526 71.5375L59.5298 71.5338Z" fill="#44911B"/>
<path id="Vector_2" d="M64.7436 7.70515C57.9308 15.6261 57.73 28.6863 64.3047 36.8936C64.6097 37.2581 65.1117 37.299 65.4129 36.9308C72.2257 29.0099 72.4265 15.9533 65.8517 7.74606C65.5468 7.34072 65.0448 7.337 64.7436 7.70515Z" fill="#D1D1D1"/>
<path id="Vector_3" d="M81.8125 74.375C75.3784 69.5417 67.5473 66.9313 59.5 66.9375C51.1291 66.9375 43.3792 69.7266 37.1875 74.375L59.5 81.6972L81.8125 74.375Z" fill="#7D4533"/>
<path id="Vector_4" d="M33.4949 89.2351L36.3955 106.676C36.8789 109.502 39.2961 111.548 42.1224 111.548H76.8927C79.7189 111.548 82.1733 109.502 82.6196 106.676L85.5574 89.2351L59.5261 83.3223L33.4949 89.2351Z" fill="#F3AD61"/>
<path id="Vector_5" d="M87.3906 89.25H31.6094C30.5681 89.25 29.75 88.4319 29.75 87.3906V76.2344C29.75 75.1931 30.5681 74.375 31.6094 74.375H87.3906C88.4319 74.375 89.25 75.1931 89.25 76.2344V87.3906C89.25 88.4319 88.4319 89.25 87.3906 89.25Z" fill="#F3C07B"/>
</g>
</g>
</svg>
