<svg width="119" height="119" viewBox="0 0 119 119" fill="none" xmlns="http://www.w3.org/2000/svg">
<g id="fluent-emoji-flat:potted-plant">
<g id="Group">
<path id="Vector" d="M59.5298 71.5339C58.6001 71.5339 57.8563 70.7901 57.8563 69.8604V62.7725L48.8198 60.069L42.4607 54.6396L57.8563 59.2508V58.2245C57.8563 54.5057 58.8976 50.8242 60.9801 47.7004C61.6011 46.7596 62.118 45.7629 62.5233 44.7254L54.2826 42.2599L44.6882 35.8599L63.4084 41.4715C63.5497 40.6088 63.6204 39.7348 63.6204 38.8498V31.0404H66.9673V38.8498C66.9673 39.2812 66.9524 39.7088 66.9226 40.1365L81.3551 35.8227L70.1914 42.6838L66.3202 43.8366C65.7904 45.8323 64.9401 47.7287 63.8026 49.4519C62.092 52.0551 61.1995 55.1044 61.1995 58.2282V61.9172L76.5579 57.3134L67.1234 63.665L61.1995 65.4388V69.8642C61.1995 70.7938 60.4557 71.5376 59.526 71.5376L59.5298 71.5339Z" fill="#44911B"/>
<path id="Vector_2" d="M64.7434 7.7053C57.9307 15.6262 57.7298 28.6865 64.3046 36.8938C64.6095 37.2582 65.1116 37.2991 65.4128 36.931C72.2255 29.01 72.4263 15.9535 65.8516 7.7462C65.5467 7.34086 65.0446 7.33714 64.7434 7.7053ZM39.6344 42.8624L26.6188 38.9577C24.4247 46.2836 28.5897 53.9814 35.8785 56.2127L48.8941 60.1174C51.1253 52.7914 46.9603 45.0564 39.6344 42.8624ZM89.3913 42.5277L76.3757 46.4324C69.0497 48.6636 64.8847 56.3614 67.116 63.6874L80.1316 59.7827C87.4203 57.5514 91.5854 49.8536 89.3913 42.5277ZM45.0972 25.0495L32.0816 21.1449C29.9247 28.4708 34.0526 36.1686 41.3785 38.3999L54.3941 42.3046C55.4462 38.7836 55.0582 34.989 53.3151 31.7539C51.5721 28.5187 48.6165 26.1075 45.0972 25.0495ZM92.4407 21.5539L79.425 25.4586C77.6806 25.9782 76.0562 26.8377 74.6454 27.9877C73.2345 29.1377 72.0651 30.5554 71.2044 32.1592C70.3438 33.763 69.8089 35.5212 69.6305 37.3326C69.4522 39.144 69.634 40.9728 70.1653 42.7136L83.181 38.8089C90.4697 36.5777 94.6347 28.8799 92.4407 21.5539Z" fill="#86D72F"/>
<path id="Vector_3" d="M81.8125 74.375C75.3784 69.5417 67.5473 66.9313 59.5 66.9375C51.1291 66.9375 43.3792 69.7266 37.1875 74.375L59.5 81.6972L81.8125 74.375Z" fill="#7D4533"/>
<path id="Vector_4" d="M33.4946 89.2352L36.3953 106.676C36.8787 109.502 39.2959 111.548 42.1221 111.548H76.8924C79.7187 111.548 82.1731 109.502 82.6193 106.676L85.5571 89.2352L59.5259 83.3224L33.4946 89.2352Z" fill="#F3AD61"/>
<path id="Vector_5" d="M87.3906 89.25H31.6094C30.5681 89.25 29.75 88.4319 29.75 87.3906V76.2344C29.75 75.1931 30.5681 74.375 31.6094 74.375H87.3906C88.4319 74.375 89.25 75.1931 89.25 76.2344V87.3906C89.25 88.4319 88.4319 89.25 87.3906 89.25Z" fill="#F3C07B"/>
</g>
</g>
</svg>
