<svg width="119" height="119" viewBox="0 0 119 119" fill="none" xmlns="http://www.w3.org/2000/svg">
<g id="fluent-emoji-flat:potted-plant">
<g id="Group">
<path id="Vector" d="M59.5298 71.5338C58.6001 71.5338 57.8563 70.79 57.8563 69.8603V62.7724L48.8198 60.0688L42.4607 54.6395L57.8563 59.2507V58.2243C57.8563 54.5056 58.8976 50.824 60.9801 47.7003C61.6011 46.7594 62.118 45.7628 62.5233 44.7253L54.2826 42.2598L44.6882 35.8598L63.4084 41.4714C63.5497 40.6086 63.6204 39.7347 63.6204 38.8497V31.0403H66.9673V38.8497C66.9673 39.281 66.9524 39.7087 66.9226 40.1363L81.3551 35.8226L70.1914 42.6837L66.3202 43.8365C65.7904 45.8322 64.9401 47.7286 63.8026 49.4518C62.092 52.0549 61.1995 55.1043 61.1995 58.2281V61.9171L76.5579 57.3132L67.1234 63.6649L61.1995 65.4387V69.864C61.1995 70.7937 60.4557 71.5375 59.526 71.5375L59.5298 71.5338Z" fill="#44911B"/>
<path id="Vector_2" d="M64.7434 7.70515C57.9306 15.6261 57.7298 28.6863 64.3046 36.8936C64.6095 37.2581 65.1115 37.299 65.4128 36.9308C72.2255 29.0099 72.4263 15.9533 65.8516 7.74606C65.5466 7.34072 65.0446 7.337 64.7434 7.70515ZM89.3913 42.5275L76.3756 46.4322C69.0497 48.6635 64.8847 56.3613 67.116 63.6872L80.1316 59.7825C87.4203 57.5513 91.5853 49.8535 89.3913 42.5275ZM45.0972 25.0494L32.0816 21.1447C29.9247 28.4707 34.0525 36.1685 41.3785 38.3997L54.3941 42.3044C55.4462 38.7834 55.0582 34.9888 53.3151 31.7537C51.572 28.5186 48.6165 26.1074 45.0972 25.0494ZM92.4406 21.5538L79.425 25.4585C77.6806 25.978 76.0562 26.8376 74.6454 27.9875C73.2345 29.1375 72.0651 30.5552 71.2044 32.159C70.3437 33.7628 69.8088 35.5211 69.6305 37.3324C69.4522 39.1438 69.6339 40.9726 70.1653 42.7135L83.181 38.8088C90.4697 36.5775 94.6347 28.8797 92.4406 21.5538Z" fill="#86D72F"/>
<path id="Vector_3" d="M81.8125 74.375C75.3784 69.5417 67.5473 66.9313 59.5 66.9375C51.1291 66.9375 43.3792 69.7266 37.1875 74.375L59.5 81.6972L81.8125 74.375Z" fill="#7D4533"/>
<path id="Vector_4" d="M33.4948 89.2351L36.3954 106.676C36.8788 109.502 39.296 111.548 42.1222 111.548H76.8926C79.7188 111.548 82.1732 109.502 82.6194 106.676L85.5573 89.2351L59.526 83.3223L33.4948 89.2351Z" fill="#F3AD61"/>
<path id="Vector_5" d="M87.3906 89.25H31.6094C30.5681 89.25 29.75 88.4319 29.75 87.3906V76.2344C29.75 75.1931 30.5681 74.375 31.6094 74.375H87.3906C88.4319 74.375 89.25 75.1931 89.25 76.2344V87.3906C89.25 88.4319 88.4319 89.25 87.3906 89.25Z" fill="#F3C07B"/>
</g>
</g>
</svg>
